{"title":"Dredd 2012 KORSUB HDRip PARTLY CROPPED XVID HS","uid":7939190,"size":1456643751,"categoryP":"video","categoryS":"movies","magnet":"?xt=urn:btih:82c7a27d23f38f521e948d6937e1f1599f282321&amp;dn=Dredd+2012+KORSUB+HDRip+PARTLY+CROPPED+XVID+HS&amp;tr=udp%3A%2F%2Ftracker.openbittorrent.com%3A80&amp;tr=udp%3A%2F%2Fopen.demonii.com%3A1337&amp;tr=udp%3A%2F%2Ftracker.coppersurfer.tk%3A6969&amp;tr=udp%3A%2F%2Fexodus.desync.com%3A6969","seeders":0,"leechers":0,"uploader":"juggs99","files":3,"time":1355939263,"description":"Dredd 2012 KORSUB HDRip PARTLY CROPPED XVID HS\n\n &lt;a href=&quot;\nhttp://www.imdb.com/title/tt1343727/&quot; rel=&quot;nofollow&quot; target=&quot;_NEW&quot;&gt;\nhttp://www.imdb.com/title/tt1343727/&lt;/a&gt;\n\n\nSource --  720p\n\n\n\nFile size                                : 1.36 GiB\nDuration                                 : 1h 35mn\nOverall bit rate                         : 2 034 Kbps\n\n\nVideo\nID                                       : 0\n\nCodec ID                                 : XVID\nCodec ID/Hint                            : XviD\nDuration                                 : 1h 35mn\nBit rate                                 : 1 830 Kbps\nWidth                                    : 720 pixels\nHeight                                   : 304 pixels\nDisplay aspect ratio                     : 2.35:1\nFrame rate                               : 29.970 fps\nColor space                              : YUV\nChroma subsampling                       : 4:2:0\nBit depth                                : 8 bits\nScan type                                : Progressive\nCompression mode                         : Lossy\nBits/(Pixel*Frame)                       : 0.279\nStream size                              : 1.22 GiB (90%)\nWriting library                          : XviD 64\n\nAudio\nID                                       : 1\nFormat                                   : MPEG Audio\nFormat version                           : Version 1\nFormat profile                           : Layer 3\nCodec ID                                 : 55\nCodec ID/Hint                            : MP3\nDuration                                 : 1h 35mn\nBit rate mode                            : Constant\nBit rate                                 : 192 Kbps\nChannel(s)                               : 2 channels\nSampling rate                            : 48.0 KHz\nCompression mode                         : Lossy\nStream size                              : 131 MiB (9%)\n\n &lt;a href=&quot;\nhttp://lookpic.com/remote-upload.php?img=http://i.imgur.com/845bM.png&quot; rel=&quot;nofollow&quot; target=&quot;_NEW&quot;&gt;\nhttp://lookpic.com/remote-upload.php?img=http://i.imgur.com/845bM.png&lt;/a&gt; &lt;a href=&quot;\nhttp://lookpic.com/remote-upload.php?img=http://i.imgur.com/WVIqE.png&quot; rel=&quot;nofollow&quot; target=&quot;_NEW&quot;&gt;\nhttp://lookpic.com/remote-upload.php?img=http://i.imgur.com/WVIqE.png&lt;/a&gt;","torrent":{"xt":"urn:btih:82c7a27d23f38f521e948d6937e1f1599f282321","amp;dn":"Dredd+2012+KORSUB+HDRip+PARTLY+CROPPED+XVID+HS","amp;tr":["udp%3A%2F%2Ftracker.openbittorrent.com%3A80","udp%3A%2F%2Fopen.demonii.com%3A1337","udp%3A%2F%2Ftracker.coppersurfer.tk%3A6969","udp%3A%2F%2Fexodus.desync.com%3A6969"],"infoHash":"82c7a27d23f38f521e948d6937e1f1599f282321","infoHashBuffer":{"type":"Buffer","data":[130,199,162,125,35,243,143,82,30,148,141,105,55,225,241,89,159,40,35,33]},"announce":[],"urlList":[]}}